<svg xmlns="http://www.w3.org/2000/svg" width="1024" height="500" viewBox="0 0 1024 500" role="img" aria-label="Heart Rate Dashboard Play Store feature graphic">
  <defs>
    <linearGradient id="bg" x1="0%" y1="0%" x2="100%" y2="100%">
      <stop offset="0%" stop-color="#0E3B2D"/>
      <stop offset="55%" stop-color="#2E7D32"/>
      <stop offset="100%" stop-color="#7BC47F"/>
    </linearGradient>
    <linearGradient id="panel" x1="0%" y1="0%" x2="0%" y2="100%">
      <stop offset="0%" stop-color="#194E2C"/>
      <stop offset="100%" stop-color="#103A2B"/>
    </linearGradient>
  </defs>

  <rect width="1024" height="500" fill="url(#bg)" />

  <circle cx="900" cy="110" r="165" fill="#FFFFFF" fill-opacity="0.07" />
  <circle cx="760" cy="420" r="130" fill="#FFFFFF" fill-opacity="0.05" />
  <circle cx="980" cy="355" r="95" fill="#FFFFFF" fill-opacity="0.06" />

  <rect x="24" y="96" width="298" height="308" rx="56" fill="url(#panel)" />
  <rect x="80" y="152" width="188" height="196" rx="38" fill="#2E7D32" />
  <polyline
    points="100,249 130,249 144,239 159,259 174,249 188,249 200,208 217,290 235,249 249,249"
    fill="none"
    stroke="#FFFFFF"
    stroke-width="11"
    stroke-linecap="round"
    stroke-linejoin="round"
  />

  <text x="346" y="186" fill="#FFFFFF" font-family="DejaVu Sans, Arial, sans-serif" font-size="52" font-weight="700">Heart Rate Dashboard</text>
  <text x="346" y="242" fill="#E8F5E9" font-family="DejaVu Sans, Arial, sans-serif" font-size="31" font-weight="600">BLE Heart Rate Monitoring</text>

  <rect x="346" y="282" width="356" height="58" rx="29" fill="#FFFFFF" fill-opacity="0.18" />
  <text x="524" y="320" text-anchor="middle" fill="#FFFFFF" font-family="DejaVu Sans, Arial, sans-serif" font-size="22" font-weight="600">Optional speed + altitude</text>

  <rect x="724" y="282" width="200" height="58" rx="29" fill="#FFFFFF" fill-opacity="0.18" />
  <text x="824" y="320" text-anchor="middle" fill="#FFFFFF" font-family="DejaVu Sans, Arial, sans-serif" font-size="22" font-weight="600">Data privacy</text>
</svg>
